<mxfile host="65bd71144e">
    <diagram id="ijMKW8mzgtJCSRLORXLT" name="Page-1">
        <mxGraphModel dx="930" dy="729" grid="1" gridSize="10" guides="1" tooltips="1" connect="1" arrows="1" fold="1" page="1" pageScale="1" pageWidth="850" pageHeight="1100" math="0" shadow="0">
            <root>
                <mxCell id="0"/>
                <mxCell id="1" parent="0"/>
                <mxCell id="2" value="callsite:&lt;br&gt;v.m&amp;lt;params&amp;gt;: &amp;lt;ret&amp;gt;" style="rounded=1;whiteSpace=wrap;html=1;" vertex="1" parent="1">
                    <mxGeometry x="320" y="110" width="120" height="60" as="geometry"/>
                </mxCell>
                <mxCell id="3" value="callsite:&lt;br&gt;v.m&amp;lt;params&amp;gt;: &amp;lt;ret&amp;gt;" style="rounded=1;whiteSpace=wrap;html=1;" vertex="1" parent="1">
                    <mxGeometry x="320" y="280" width="120" height="60" as="geometry"/>
                </mxCell>
            </root>
        </mxGraphModel>
    </diagram>
</mxfile>